/* XPM */
static char * ENEMY_S_S_xpm[] = {
"50 50 24 1",
" 	c #70C0A0",
".	c #40B080",
"+	c #A0D0C0",
"@	c #18A068",
"#	c #081021",
"$	c #6B8CAD",
"%	c #3A4A63",
"&	c #FFFFFF",
"*	c #6D8DAE",
"=	c #D6D6D6",
"-	c #7B4242",
";	c #814A48",
">	c #FFD6B5",
",	c #000000",
"'	c #3C4B64",
")	c #7D4444",
"!	c #804946",
"~	c #FFC594",
"{	c #DE9473",
"]	c #7D4544",
"^	c #71BF9F",
"/	c #FDC493",
"(	c #424252",
"_	c #8C8C94",
"                         .                   .    ",
"+         +         +                   +         ",
"  +++ @     ++        ++  @     ++        ++  @   ",
"  +++ @     ++        ++  @     ++        ++  @   ",
"                                                  ",
"       ..         .        ..        ..        .. ",
"                                                  ",
"      +   .     ++        +         +         +   ",
"      +   .     ++        +         +         +   ",
"            @@                  @@                ",
"               .                   .              ",
"+         +         +                   +         ",
"  +++       ++  @@    ++        ++  @     ++      ",
"  +++       ++  @@    #####     ++  @     ++      ",
"                    ##$$$$$###                    ",
"       ..         .#$$$$$$$$$$# ###  ..        .. ",
"                   #$$$$$$$$$$# ###               ",
".     +         +##%$$$$&&$$$$%#$$# +   .     +   ",
".     +         +##%%$*&$$&$$%%#%%# +   .     +   ",
"  @@@            ##%%%%%==%%%%%###        @@      ",
"                -;>,%%'=%%=%%%,>--           .    ",
"+         +     -)>,%%'=%%=%%%,>--      +         ",
"  +++ @     ++  -!~,{-]>>>>--{,~--        ++  @   ",
"  +++ @     ++   ^-{{~/,>>,~~{{-++        ++  @   ",
"                   -{{~~~~~{{{-                   ",
"       ..        --~(-{{{{{--(~-     ..        .. ",
"                 --~(-{{{{{--(~-                  ",
"      +   .     -~~~_(((--(((_~~--  +         +   ",
"      +   .     ,,,{(_==&&=__({,,,  +         +   ",
"            @@ ,___,_(((__(((_,___,               ",
"               ,(((,(=&&&&&==(,(((,.              ",
"+         +    ,(((,(=&&&&&==(,(((,     +         ",
"  +++       ++  ,,,#((_____(((#,,,  @     ++      ",
"  +++       ++  @@ #$(((((((($# ++  @     ++      ",
"                   ,$$$$%%$$$$,                   ",
"       ..         .,(_((,,(__(,      ..        .. ",
"                   ,(_((,,(__(,                   ",
".     +         ++  ,,,,  ,,,,      +   .     +   ",
".     +         ++  .     +         +   .     +   ",
"  @@@                 @@                  @@      ",
"                         .                   .    ",
"+         +         +                   +         ",
"  +++ @     ++        ++  @     ++        ++  @   ",
"  +++ @     ++        ++  @     ++        ++  @   ",
"                                                  ",
"       ..         .        ..        ..        .. ",
"                                                  ",
"      +   .     ++        +         +         +   ",
"      +   .     ++        +         +         +   ",
"            @@                  @@                "};
