/* XPM */
static char * ENEMY_W_S_xpm[] = {
"50 50 16 1",
" 	c #70C0A0",
".	c #40B080",
"+	c #A0D0C0",
"@	c #18A068",
"#	c #081021",
"$	c #6B8CAD",
"%	c #3A4A63",
"&	c #FFFFFF",
"*	c #D6D6D6",
"=	c #7B4242",
"-	c #FFD6B5",
";	c #000000",
">	c #FFC594",
",	c #DE9473",
"'	c #424252",
")	c #8C8C94",
"                         .                   .    ",
"+         +         +                   +         ",
"  +++ @     ++        ++  @     ++        ++  @   ",
"  +++ @     ++        ++  @     ++        ++  @   ",
"                                                  ",
"       ..         .        ..        ..        .. ",
"                                                  ",
"      +   .     ++        +         +         +   ",
"      +   .     ++        +         +         +   ",
"            @@                  @@                ",
"               .                   .              ",
"+         +         +                   +         ",
"  +++       ++  @@    #####     ++  @     ++      ",
"  +++       ++  @@ ###$$$$$###  ++  @     ++      ",
"                   ###$$$$$###                    ",
"       ..         #$$$$$$$$$$$# ###  ..        .. ",
"                ##%$$$$&&&$$$$%#$$#               ",
".     +         ##%%$$&$$$&$%%%#%%# +   .     +   ",
".     +         ##%%$$&$$$&$%%%#%%# +   .     +   ",
"  @@@           ##%%%%%***%%%%%###        @@      ",
"               =--;%%%*%%%*%%%;-==           .    ",
"+         +    =>>;,==-----=,,;>==      +         ",
"  +++ @     ++ =>>;,==-----=,,;>==        ++  @   ",
"  +++ @     ++  ==,,>>;---;>,,,=++        ++  @   ",
"               ;''=,,,>>>>>,,,=                   ",
"       ..      ;'','==,,,,,=''>=     ..        .. ",
"               ;'','==,,,,,=''>=                  ",
"      +   .     ;;,)'''==='',,>=    +         +   ",
"      +   .     ++='))*&&&*)'',>==  +         +   ",
"            @@    ='))*&&&*)'',>==                ",
"               .  ')''')))''));;== .              ",
"+         +       #'**&&&&&*;;));;      +         ",
"  +++       ++  @@##'')))))';;'';;  @     ++      ",
"  +++       ++  @@##'')))))';;'';;  @     ++      ",
"                   #$$%%%%####;;                  ",
"       ..         .;$$$$%%##.        ..        .. ",
"                   ;'')';;                        ",
".     +         ++ ;'')';;+         +   .     +   ",
".     +         ++  ;;;;  +         +   .     +   ",
"  @@@                 @@                  @@      ",
"                         .                   .    ",
"+         +         +                   +         ",
"  +++ @     ++        ++  @     ++        ++  @   ",
"  +++ @     ++        ++  @     ++        ++  @   ",
"                                                  ",
"       ..         .        ..        ..        .. ",
"                                                  ",
"      +   .     ++        +         +         +   ",
"      +   .     ++        +         +         +   ",
"            @@                  @@                "};
