/* XPM */
static char * PLAYER_W_S_xpm[] = {
"50 50 17 1",
" 	c #70C0A0",
".	c #40B080",
"+	c #A0D0C0",
"@	c #18A068",
"#	c #3A4A7B",
"$	c #F8F8F8",
"%	c #DEE6EF",
"&	c #000000",
"*	c #73CE73",
"=	c #4A9452",
"-	c #7B4242",
";	c #FFC594",
">	c #FFD6B5",
",	c #10213A",
"'	c #DE9473",
")	c #C54242",
"!	c #FF635A",
"                         .                   .    ",
"+         +         +                   +         ",
"  +++ @     ++        ++  @     ++        ++  @   ",
"  +++ @     ++        ++  @     ++        ++  @   ",
"                                                  ",
"       ..         .        ..        ..        .. ",
"                                                  ",
"      +   .     ++        +         +         +   ",
"      +   .     ++        +         +         +   ",
"            @@                  @@                ",
"               .            #      .              ",
"+         +         +     ##$##         +         ",
"  +++       ++  @@    ++  ##$## ++  @     ++      ",
"  +++       ++  @@   #####$$$###++  @     ++      ",
"                   ##$$$%%%%%%%%##                ",
"       ..         .##$$$%%%%%%%%##   ..        .. ",
"                  #$$$$$$$$$%%%#                  ",
".     +         ++&**%******%**&    +   .     +   ",
".     +         ++&**%******%**&    +   .     +   ",
"  @@@           &&===%$$**$$%===&&        @@      ",
"                &&#==*$$$$$$*==#&&           .    ",
"+         +    -;;&>>>>>>>>>>>>&;;-     +         ",
"  +++ @     ++ -;;&>>>>>>>>>>>>&;;-       ++  @   ",
"  +++ @     ++ -;;->>>,,>>,,>>>-;;-       ++  @   ",
"                --''';,,;;,,;'''--                ",
"       ..       --''';,,;;,,;'''--   ..        .. ",
"                  -''''';;'''''-&&                ",
"      +   .     ++&&&-''''''-&&&==- +         +   ",
"      +   .     ++&&&-''''''-&&&==- +         +   ",
"            @@  &&;'',&&&&&&,&&&==,               ",
"               .,,&&&,,,)),,,,,&,, .              ",
"+         +     &&!!!&,,,,,,-&&         +         ",
"  +++       ++  &&!!!&,,,,,,-&& ++  @     ++      ",
"  +++       ++  &&)))&--,---&&& ++  @     ++      ",
"                  &&&&&&&&&&&,,                   ",
"       ..         &&&&&&&&&&&,,      ..        .. ",
"                     &&&&&==-&&                   ",
".     +         ++  .   &-**)&&     +   .     +   ",
".     +         ++  .   &-**)&&     +   .     +   ",
"  @@@                 @@ &&&&             @@      ",
"                         .                   .    ",
"+         +         +                   +         ",
"  +++ @     ++        ++  @     ++        ++  @   ",
"  +++ @     ++        ++  @     ++        ++  @   ",
"                                                  ",
"       ..         .        ..        ..        .. ",
"                                                  ",
"      +   .     ++        +         +         +   ",
"      +   .     ++        +         +         +   ",
"            @@                  @@                "};
