/* XPM */
static char * POKEBALL_xpm[] = {
"50 50 111 2",
"  	c #70C0A0",
". 	c #40B080",
"+ 	c #A0D0C0",
"@ 	c #18A068",
"# 	c #40AA7C",
"$ 	c #484039",
"% 	c #403830",
"& 	c #6CB698",
"* 	c #404337",
"= 	c #FFE4D9",
"- 	c #F15A4A",
"; 	c #F04028",
"> 	c #A7102E",
", 	c #6DB99A",
"' 	c #44493D",
") 	c #DCC5BC",
"! 	c #FADFD4",
"~ 	c #FCCEC3",
"{ 	c #F14733",
"] 	c #A6112F",
"^ 	c #E0C8BE",
"/ 	c #F8AEA3",
"( 	c #F9B3A9",
"_ 	c #F1503E",
": 	c #6FBD9D",
"< 	c #000000",
"[ 	c #9FCFBF",
"} 	c #EC3F29",
"| 	c #8A262F",
"1 	c #A5122F",
"2 	c #E2E0EF",
"3 	c #867B73",
"4 	c #857B73",
"5 	c #70BF9F",
"6 	c #5D3430",
"7 	c #A51330",
"8 	c #867A72",
"9 	c #6FBE9F",
"0 	c #6DB99B",
"a 	c #72BA9D",
"b 	c #E1E1F0",
"c 	c #424033",
"d 	c #887B73",
"e 	c #897971",
"f 	c #888078",
"g 	c #6EBC9D",
"h 	c #70BFA0",
"i 	c #72B99C",
"j 	c #9BCABA",
"k 	c #85AEA0",
"l 	c #68A189",
"m 	c #6CB095",
"n 	c #6FBD9E",
"o 	c #71BE9F",
"p 	c #9ECDBE",
"q 	c #487A66",
"r 	c #528F76",
"s 	c #CAC9D3",
"t 	c #847C74",
"u 	c #867E76",
"v 	c #5C9E83",
"w 	c #6FBE9E",
"x 	c #71BD9E",
"y 	c #72BB9D",
"z 	c #6BB899",
"A 	c #508670",
"B 	c #396453",
"C 	c #5B957D",
"D 	c #426D5B",
"E 	c #538D76",
"F 	c #2A9E6A",
"G 	c #209F69",
"H 	c #6DB89A",
"I 	c #528E76",
"J 	c #497F69",
"K 	c #528872",
"L 	c #538A74",
"M 	c #406F5C",
"N 	c #4C836D",
"O 	c #61A68B",
"P 	c #95C1B2",
"Q 	c #4A816B",
"R 	c #457B65",
"S 	c #56957C",
"T 	c #508C74",
"U 	c #467B66",
"V 	c #3E6E5A",
"W 	c #41725E",
"X 	c #41725F",
"Y 	c #4D856F",
"Z 	c #5EA186",
"` 	c #6EBA9B",
" .	c #71BD9F",
"..	c #65AD90",
"+.	c #73968A",
"@.	c #74978C",
"#.	c #487F69",
"$.	c #55947B",
"%.	c #57977D",
"&.	c #54927A",
"*.	c #599A80",
"=.	c #6DBA9B",
"-.	c #9FCEBE",
";.	c #97C4B5",
">.	c #9BCABB",
",.	c #6DBC9C",
"'.	c #68B395",
").	c #6BB89A",
"!.	c #6EBB9C",
"~.	c #6AB396",
"{.	c #71BC9D",
"                                                  .                                       .         ",
"+                   +                   +                                       +                   ",
"    + + +   @           + +                 + +     @           + +                 + +     @       ",
"    + + +   @           + +                 + +     @           + +                 + +     @       ",
"                                                                                                    ",
"              . .                   .                 . .                 . .                 . .   ",
"                                                                                                    ",
"            +       .           + +                 +                   +                   +       ",
"            +       .           + +                 +                   +                   +       ",
"                        @ @                                     @ @                                 ",
"                              .                                       .                             ",
"+                   +                   +                                       +                   ",
"    + + +               + +     @ @         + +                 + +     @           + +             ",
"    + + +               + +     @ @         + +                 + +     @           + +             ",
"                                                                                                    ",
"              . .                   .                 . .                 . .                 . .   ",
"                                                                                                    ",
".           +                   + +     #   $ $ $ $ $ %                 +       .           +       ",
".           +                   + +   & * % = = - ; ; > % %             +       .           +       ",
"    @ @ @                           , ' ) ! = ~ { ; ; > ] %                         @ @             ",
"                                      % ^ / ( _ ; ; ; > > > %                             .         ",
"+                   +               $ ; ; ; ; ; ; > > > > > > $ :               +                   ",
"    + + +   @           + +         $ ; ; ; ; ; ; > > > > > > $ + +                 + +     @       ",
"    + + +   @           + +         < ; ; ; > > % % % > > > > < [ +                 + +     @       ",
"                                    < } | > 1 % 2 3 4 < > > < < 5                                   ",
"              . .                   < % 6 > 7 % 2 3 8 < > > < < 9         . .                 . .   ",
"                                0 a < b b c < < d e 8 < < < f < g h                                 ",
"            +       .         i j k l < < b b b < < < f f f < m n h o a +                   +       ",
"            +       .         o p k q r < b b s t t u f f f < v w x 5 y +                   +       ",
"                        @ @   o h z A B C < f f f f f f < < D E F G x a                             ",
"                              . h o H I J K < < < < < < L M N O o 5   .                             ",
"+                   +           5 5 o o P Q R S T U V W X Y Z ` h o             +                   ",
"    + + +               + +     @ @ o x  ...+.@.#.Q $.%.&.*.=.5 -.+     @           + +             ",
"    + + +               + +     @ @       w ;.>.,.'.).w !.~.    + +     @           + +             ",
"                                          5 5 o o o o x {.{.                                        ",
"              . .                   .                 . .                 . .                 . .   ",
"                                                                                                    ",
".           +                   + +     .           +                   +       .           +       ",
".           +                   + +     .           +                   +       .           +       ",
"    @ @ @                                   @ @                                     @ @             ",
"                                                  .                                       .         ",
"+                   +                   +                                       +                   ",
"    + + +   @           + +                 + +     @           + +                 + +     @       ",
"    + + +   @           + +                 + +     @           + +                 + +     @       ",
"                                                                                                    ",
"              . .                   .                 . .                 . .                 . .   ",
"                                                                                                    ",
"            +       .           + +                 +                   +                   +       ",
"            +       .           + +                 +                   +                   +       ",
"                        @ @                                     @ @                                 "};
